<?xml version="1.0" encoding="utf-8"?>
<!-- Generator: Adobe Illustrator 26.5.2, SVG Export Plug-In . SVG Version: 6.00 Build 0)  -->
<svg version="1.1" id="Layer_1" xmlns="http://www.w3.org/2000/svg" xmlns:xlink="http://www.w3.org/1999/xlink" x="0px" y="0px"
	 viewBox="0 0 144 144" style="enable-background:new 0 0 144 144;" xml:space="preserve">
<style type="text/css">
	.st0{fill:#C75E60;}
</style>
<path class="st0" d="M69,6C55.2,6,43.7,16.5,42.2,30H36c-6.9,0-12.7,5.2-13.4,12.1l-7.5,72c-0.4,3.8,0.8,7.6,3.4,10.4
	c2.6,2.8,6.2,4.5,10,4.5h87c3.8,0,7.5-1.6,10-4.5c2.6-2.8,3.8-6.6,3.4-10.4l-7.5-72C120.7,35.2,114.9,30,108,30h-6.1
	c0.1,1,0.1,2,0.1,3v6h6c2.3,0,4.2,1.7,4.5,4l7.5,72c0.1,1.3-0.3,2.5-1.1,3.5c-0.9,0.9-2.1,1.5-3.3,1.5h-87c-1.3,0-2.5-0.5-3.3-1.5
	c-0.9-0.9-1.3-2.2-1.1-3.5l7.5-72c0.2-2.3,2.2-4,4.5-4h6v10.5c0,2.5,2,4.5,4.4,4.6c2.5,0,4.5-2,4.6-4.4c0,0,0-0.1,0-0.1V33
	c0-10,8-18,18-18c9,0,16.3,6.5,17.7,15H57.4c-0.3,1-0.4,2-0.4,3v6h30v10.5c0,2.5,2,4.5,4.4,4.6c2.5,0,4.5-2,4.6-4.4c0,0,0-0.1,0-0.1
	V33C96,18.1,83.9,6,69,6z"/>
</svg>
